<mxfile host="app.diagrams.net" modified="2024-07-25T06:17:30.350Z" agent="Mozilla/5.0 (Windows NT 10.0; Win64; x64) AppleWebKit/537.36 (KHTML, like Gecko) Chrome/126.0.0.0 Safari/537.36" etag="maOV_IsTsIx9rKem77sI" version="24.6.2" type="device">
  <diagram name="Page-1" id="Vc08yr3_zJAEnjp8Pe5J">
    <mxGraphModel dx="1434" dy="772" grid="1" gridSize="10" guides="1" tooltips="1" connect="1" arrows="1" fold="1" page="1" pageScale="1" pageWidth="1920" pageHeight="1200" math="0" shadow="0">
      <root>
        <mxCell id="0" />
        <mxCell id="1" parent="0" />
        <mxCell id="NIqYZCi16Il6kfepJ139-2" value="&lt;div&gt;&lt;br&gt;&lt;/div&gt;&lt;div&gt;&lt;br&gt;&lt;/div&gt;&lt;div&gt;&lt;br&gt;&lt;/div&gt;&lt;div&gt;&lt;br&gt;&lt;/div&gt;&lt;div&gt;&lt;br&gt;&lt;/div&gt;&lt;div&gt;&lt;br&gt;&lt;/div&gt;&lt;div&gt;&lt;br&gt;&lt;/div&gt;&lt;div&gt;&lt;br&gt;&lt;/div&gt;&lt;div&gt;&lt;br&gt;&lt;/div&gt;&lt;div&gt;&lt;br&gt;&lt;/div&gt;&lt;div&gt;&lt;br&gt;&lt;/div&gt;&lt;div&gt;&lt;br&gt;&lt;/div&gt;&lt;div&gt;&lt;br&gt;&lt;/div&gt;&lt;div&gt;&lt;br&gt;&lt;/div&gt;&lt;div&gt;&lt;br&gt;&lt;/div&gt;&lt;div&gt;&lt;br&gt;&lt;/div&gt;&lt;div&gt;&lt;br&gt;&lt;/div&gt;&lt;div&gt;&lt;br&gt;&lt;/div&gt;&lt;div&gt;&lt;br&gt;&lt;/div&gt;&lt;div&gt;&lt;br&gt;&lt;/div&gt;&lt;div&gt;&lt;br&gt;&lt;/div&gt;&lt;div&gt;&lt;br&gt;&lt;/div&gt;&lt;div&gt;&lt;br&gt;&lt;/div&gt;&lt;div&gt;&lt;br&gt;&lt;/div&gt;&lt;div&gt;&lt;br&gt;&lt;/div&gt;&lt;div&gt;&lt;br&gt;&lt;/div&gt;&lt;div&gt;&lt;br&gt;&lt;/div&gt;&lt;div&gt;&lt;font style=&quot;font-size: 18px;&quot;&gt;&lt;b&gt;&lt;u&gt;Central Processing Unit (CPU)&lt;/u&gt;&lt;/b&gt;&lt;/font&gt;&lt;/div&gt;" style="rounded=1;whiteSpace=wrap;html=1;" vertex="1" parent="1">
          <mxGeometry x="870" y="620" width="370" height="450" as="geometry" />
        </mxCell>
        <mxCell id="NIqYZCi16Il6kfepJ139-23" style="edgeStyle=orthogonalEdgeStyle;rounded=0;orthogonalLoop=1;jettySize=auto;html=1;exitX=0.75;exitY=0;exitDx=0;exitDy=0;entryX=0.75;entryY=1;entryDx=0;entryDy=0;dashed=1;dashPattern=12 12;" edge="1" parent="1" source="NIqYZCi16Il6kfepJ139-1" target="NIqYZCi16Il6kfepJ139-7">
          <mxGeometry relative="1" as="geometry" />
        </mxCell>
        <mxCell id="NIqYZCi16Il6kfepJ139-25" style="edgeStyle=orthogonalEdgeStyle;rounded=0;orthogonalLoop=1;jettySize=auto;html=1;exitX=0.25;exitY=1;exitDx=0;exitDy=0;entryX=0.25;entryY=0;entryDx=0;entryDy=0;dashed=1;dashPattern=12 12;" edge="1" parent="1" source="NIqYZCi16Il6kfepJ139-1" target="NIqYZCi16Il6kfepJ139-4">
          <mxGeometry relative="1" as="geometry" />
        </mxCell>
        <mxCell id="NIqYZCi16Il6kfepJ139-1" value="&lt;font style=&quot;font-size: 14px;&quot;&gt;Register&lt;/font&gt;" style="rounded=0;whiteSpace=wrap;html=1;" vertex="1" parent="1">
          <mxGeometry x="955" y="700" width="180" height="40" as="geometry" />
        </mxCell>
        <mxCell id="NIqYZCi16Il6kfepJ139-26" style="edgeStyle=orthogonalEdgeStyle;rounded=0;orthogonalLoop=1;jettySize=auto;html=1;exitX=0.75;exitY=0;exitDx=0;exitDy=0;entryX=0.75;entryY=1;entryDx=0;entryDy=0;dashed=1;dashPattern=12 12;" edge="1" parent="1" source="NIqYZCi16Il6kfepJ139-4" target="NIqYZCi16Il6kfepJ139-1">
          <mxGeometry relative="1" as="geometry" />
        </mxCell>
        <mxCell id="NIqYZCi16Il6kfepJ139-4" value="&lt;font style=&quot;font-size: 14px;&quot;&gt;Arithmetic &amp;amp; Logical Unit&amp;nbsp;&lt;/font&gt;&lt;div&gt;&lt;font style=&quot;font-size: 14px;&quot;&gt;(ALU)&lt;/font&gt;&lt;/div&gt;" style="rounded=0;whiteSpace=wrap;html=1;" vertex="1" parent="1">
          <mxGeometry x="947.5" y="790" width="195" height="50" as="geometry" />
        </mxCell>
        <mxCell id="NIqYZCi16Il6kfepJ139-12" style="edgeStyle=orthogonalEdgeStyle;rounded=0;orthogonalLoop=1;jettySize=auto;html=1;entryX=0.5;entryY=1;entryDx=0;entryDy=0;" edge="1" parent="1" source="NIqYZCi16Il6kfepJ139-5" target="NIqYZCi16Il6kfepJ139-9">
          <mxGeometry relative="1" as="geometry" />
        </mxCell>
        <mxCell id="NIqYZCi16Il6kfepJ139-13" style="edgeStyle=orthogonalEdgeStyle;rounded=0;orthogonalLoop=1;jettySize=auto;html=1;exitX=0;exitY=0.25;exitDx=0;exitDy=0;entryX=0;entryY=0.5;entryDx=0;entryDy=0;" edge="1" parent="1" source="NIqYZCi16Il6kfepJ139-5" target="NIqYZCi16Il6kfepJ139-11">
          <mxGeometry relative="1" as="geometry">
            <Array as="points">
              <mxPoint x="830" y="900" />
              <mxPoint x="830" y="350" />
            </Array>
          </mxGeometry>
        </mxCell>
        <mxCell id="NIqYZCi16Il6kfepJ139-14" style="edgeStyle=orthogonalEdgeStyle;rounded=0;orthogonalLoop=1;jettySize=auto;html=1;exitX=1;exitY=0.75;exitDx=0;exitDy=0;entryX=0.5;entryY=1;entryDx=0;entryDy=0;" edge="1" parent="1" source="NIqYZCi16Il6kfepJ139-5" target="NIqYZCi16Il6kfepJ139-10">
          <mxGeometry relative="1" as="geometry" />
        </mxCell>
        <mxCell id="NIqYZCi16Il6kfepJ139-15" style="edgeStyle=orthogonalEdgeStyle;rounded=0;orthogonalLoop=1;jettySize=auto;html=1;exitX=1;exitY=0.25;exitDx=0;exitDy=0;entryX=1;entryY=0.5;entryDx=0;entryDy=0;" edge="1" parent="1" source="NIqYZCi16Il6kfepJ139-5" target="NIqYZCi16Il6kfepJ139-7">
          <mxGeometry relative="1" as="geometry">
            <mxPoint x="1280" y="520" as="targetPoint" />
            <Array as="points">
              <mxPoint x="1280" y="900" />
              <mxPoint x="1280" y="520" />
            </Array>
          </mxGeometry>
        </mxCell>
        <mxCell id="NIqYZCi16Il6kfepJ139-5" value="&lt;font style=&quot;font-size: 14px;&quot;&gt;Control Unit (CU)&lt;/font&gt;" style="rounded=0;whiteSpace=wrap;html=1;" vertex="1" parent="1">
          <mxGeometry x="955" y="890" width="200" height="40" as="geometry" />
        </mxCell>
        <mxCell id="NIqYZCi16Il6kfepJ139-18" style="edgeStyle=orthogonalEdgeStyle;rounded=0;orthogonalLoop=1;jettySize=auto;html=1;exitX=1;exitY=0.25;exitDx=0;exitDy=0;entryX=0;entryY=0.25;entryDx=0;entryDy=0;dashed=1;dashPattern=12 12;" edge="1" parent="1" source="NIqYZCi16Il6kfepJ139-7" target="NIqYZCi16Il6kfepJ139-10">
          <mxGeometry relative="1" as="geometry" />
        </mxCell>
        <mxCell id="NIqYZCi16Il6kfepJ139-20" style="edgeStyle=orthogonalEdgeStyle;rounded=0;orthogonalLoop=1;jettySize=auto;html=1;exitX=0.25;exitY=0;exitDx=0;exitDy=0;entryX=0.25;entryY=1;entryDx=0;entryDy=0;dashed=1;dashPattern=12 12;" edge="1" parent="1" source="NIqYZCi16Il6kfepJ139-7" target="NIqYZCi16Il6kfepJ139-11">
          <mxGeometry relative="1" as="geometry" />
        </mxCell>
        <mxCell id="NIqYZCi16Il6kfepJ139-22" style="edgeStyle=orthogonalEdgeStyle;rounded=0;orthogonalLoop=1;jettySize=auto;html=1;exitX=0.25;exitY=1;exitDx=0;exitDy=0;entryX=0.25;entryY=0;entryDx=0;entryDy=0;dashed=1;dashPattern=12 12;" edge="1" parent="1" source="NIqYZCi16Il6kfepJ139-7" target="NIqYZCi16Il6kfepJ139-1">
          <mxGeometry relative="1" as="geometry" />
        </mxCell>
        <mxCell id="NIqYZCi16Il6kfepJ139-7" value="&lt;font style=&quot;font-size: 14px;&quot;&gt;Main Memory&lt;/font&gt;" style="rounded=1;whiteSpace=wrap;html=1;" vertex="1" parent="1">
          <mxGeometry x="995" y="490" width="145" height="60" as="geometry" />
        </mxCell>
        <mxCell id="NIqYZCi16Il6kfepJ139-16" style="edgeStyle=orthogonalEdgeStyle;rounded=0;orthogonalLoop=1;jettySize=auto;html=1;exitX=1;exitY=0.5;exitDx=0;exitDy=0;entryX=0;entryY=0.5;entryDx=0;entryDy=0;dashed=1;dashPattern=12 12;" edge="1" parent="1" source="NIqYZCi16Il6kfepJ139-9" target="NIqYZCi16Il6kfepJ139-7">
          <mxGeometry relative="1" as="geometry" />
        </mxCell>
        <mxCell id="NIqYZCi16Il6kfepJ139-9" value="&lt;font style=&quot;font-size: 14px;&quot;&gt;Input Device&lt;/font&gt;" style="rounded=1;whiteSpace=wrap;html=1;" vertex="1" parent="1">
          <mxGeometry x="650" y="490" width="120" height="60" as="geometry" />
        </mxCell>
        <mxCell id="NIqYZCi16Il6kfepJ139-10" value="&lt;font style=&quot;font-size: 14px;&quot;&gt;Output Device&lt;/font&gt;" style="rounded=1;whiteSpace=wrap;html=1;" vertex="1" parent="1">
          <mxGeometry x="1340" y="490" width="120" height="60" as="geometry" />
        </mxCell>
        <mxCell id="NIqYZCi16Il6kfepJ139-21" style="edgeStyle=orthogonalEdgeStyle;rounded=0;orthogonalLoop=1;jettySize=auto;html=1;exitX=0.75;exitY=1;exitDx=0;exitDy=0;entryX=0.75;entryY=0;entryDx=0;entryDy=0;dashed=1;dashPattern=12 12;" edge="1" parent="1" source="NIqYZCi16Il6kfepJ139-11" target="NIqYZCi16Il6kfepJ139-7">
          <mxGeometry relative="1" as="geometry" />
        </mxCell>
        <mxCell id="NIqYZCi16Il6kfepJ139-11" value="&lt;font style=&quot;font-size: 14px;&quot;&gt;Secondary Memory&lt;/font&gt;" style="rounded=1;whiteSpace=wrap;html=1;" vertex="1" parent="1">
          <mxGeometry x="995" y="320" width="145" height="60" as="geometry" />
        </mxCell>
        <mxCell id="NIqYZCi16Il6kfepJ139-27" style="edgeStyle=orthogonalEdgeStyle;rounded=0;orthogonalLoop=1;jettySize=auto;html=1;exitX=0.5;exitY=0;exitDx=0;exitDy=0;entryX=0.556;entryY=0.98;entryDx=0;entryDy=0;entryPerimeter=0;" edge="1" parent="1" source="NIqYZCi16Il6kfepJ139-5" target="NIqYZCi16Il6kfepJ139-4">
          <mxGeometry relative="1" as="geometry" />
        </mxCell>
        <mxCell id="NIqYZCi16Il6kfepJ139-31" value="" style="endArrow=classic;html=1;rounded=0;" edge="1" parent="1">
          <mxGeometry width="50" height="50" relative="1" as="geometry">
            <mxPoint x="1280" y="340" as="sourcePoint" />
            <mxPoint x="1360" y="340" as="targetPoint" />
          </mxGeometry>
        </mxCell>
        <mxCell id="NIqYZCi16Il6kfepJ139-32" value="Commands / Control Signals" style="text;html=1;align=center;verticalAlign=middle;resizable=0;points=[];autosize=1;strokeColor=none;fillColor=none;" vertex="1" parent="1">
          <mxGeometry x="1360" y="328" width="180" height="30" as="geometry" />
        </mxCell>
        <mxCell id="NIqYZCi16Il6kfepJ139-42" value="" style="endArrow=classic;html=1;rounded=0;dashed=1;dashPattern=8 8;" edge="1" parent="1">
          <mxGeometry width="50" height="50" relative="1" as="geometry">
            <mxPoint x="1280" y="380" as="sourcePoint" />
            <mxPoint x="1365" y="380" as="targetPoint" />
            <Array as="points">
              <mxPoint x="1365" y="380" />
            </Array>
          </mxGeometry>
        </mxCell>
        <mxCell id="NIqYZCi16Il6kfepJ139-44" value="&lt;span style=&quot;color: rgb(0, 0, 0); font-family: Helvetica; font-size: 12px; font-style: normal; font-variant-ligatures: normal; font-variant-caps: normal; font-weight: 400; letter-spacing: normal; orphans: 2; text-align: center; text-indent: 0px; text-transform: none; widows: 2; word-spacing: 0px; -webkit-text-stroke-width: 0px; white-space: nowrap; background-color: rgb(251, 251, 251); text-decoration-thickness: initial; text-decoration-style: initial; text-decoration-color: initial; display: inline !important; float: none;&quot;&gt;Data/ Instruction&lt;/span&gt;" style="text;whiteSpace=wrap;html=1;" vertex="1" parent="1">
          <mxGeometry x="1380" y="370" width="190" height="40" as="geometry" />
        </mxCell>
      </root>
    </mxGraphModel>
  </diagram>
</mxfile>
